<mxfile host="app.diagrams.net" modified="2021-06-10T07:30:22.168Z" agent="5.0 (Macintosh; Intel Mac OS X 10_13_6) AppleWebKit/537.36 (KHTML, like Gecko) Chrome/90.0.4430.212 Safari/537.36" etag="ucl8gQNnQ_tznaoniQZm" version="14.7.7" type="github">
  <diagram id="Is7nYFCBdMyNHaLq8IZW" name="第 1 页">
    <mxGraphModel dx="946" dy="646" grid="1" gridSize="10" guides="1" tooltips="1" connect="1" arrows="1" fold="1" page="1" pageScale="1" pageWidth="827" pageHeight="1169" math="0" shadow="0">
      <root>
        <mxCell id="0" />
        <mxCell id="1" parent="0" />
        <mxCell id="XQhjO7J8rdvKNfG-MFRs-34" value="" style="rounded=0;whiteSpace=wrap;html=1;comic=1;fontFamily=Comic Sans MS;fontSize=16;fillColor=#dae8fc;strokeColor=#6c8ebf;" parent="1" vertex="1">
          <mxGeometry x="84.63" y="241" width="351" height="210" as="geometry" />
        </mxCell>
        <mxCell id="1ueHQHKciYsmYRuD5N_B-34" value="Qcs" style="text;html=1;strokeColor=none;fillColor=none;align=center;verticalAlign=middle;whiteSpace=wrap;rounded=0;comic=1;fontFamily=Comic Sans MS;fontSize=16;fontStyle=1" parent="1" vertex="1">
          <mxGeometry x="20" y="330" width="50" height="20" as="geometry" />
        </mxCell>
        <mxCell id="KlWJ0E5zpvOS__4lGVaB-1" value="地图" style="text;html=1;strokeColor=none;fillColor=none;align=center;verticalAlign=middle;whiteSpace=wrap;rounded=0;comic=1;fontFamily=Comic Sans MS;fontSize=16;fontStyle=1" parent="1" vertex="1">
          <mxGeometry x="611.75" y="260" width="50" height="20" as="geometry" />
        </mxCell>
        <mxCell id="KlWJ0E5zpvOS__4lGVaB-24" value="导航" style="text;html=1;strokeColor=none;fillColor=none;align=center;verticalAlign=middle;whiteSpace=wrap;rounded=0;comic=1;fontFamily=Comic Sans MS;fontSize=16;fontStyle=1" parent="1" vertex="1">
          <mxGeometry x="230" y="251" width="50" height="20" as="geometry" />
        </mxCell>
        <mxCell id="07GgqiMLKD5ptPio6yUv-8" value="地图" style="text;html=1;strokeColor=none;fillColor=none;align=center;verticalAlign=middle;whiteSpace=wrap;rounded=0;comic=1;fontFamily=Comic Sans MS;fontSize=16;fontStyle=1" parent="1" vertex="1">
          <mxGeometry x="611.75" y="260" width="50" height="20" as="geometry" />
        </mxCell>
        <mxCell id="XQhjO7J8rdvKNfG-MFRs-3" value="Map Interface" style="rounded=0;whiteSpace=wrap;html=1;comic=1;fillColor=#d5e8d4;strokeColor=#82b366;fontSize=11;fontFamily=Comic Sans MS;" parent="1" vertex="1">
          <mxGeometry x="483.5" y="281" width="306.5" height="45" as="geometry" />
        </mxCell>
        <mxCell id="XQhjO7J8rdvKNfG-MFRs-8" value="地图" style="text;html=1;strokeColor=none;fillColor=none;align=center;verticalAlign=middle;whiteSpace=wrap;rounded=0;comic=1;fontFamily=Comic Sans MS;fontSize=16;fontStyle=1" parent="1" vertex="1">
          <mxGeometry x="611.75" y="251" width="50" height="20" as="geometry" />
        </mxCell>
        <mxCell id="XQhjO7J8rdvKNfG-MFRs-17" value="Navi Interface" style="rounded=0;whiteSpace=wrap;html=1;comic=1;fillColor=#d5e8d4;strokeColor=#82b366;fontSize=11;fontFamily=Comic Sans MS;" parent="1" vertex="1">
          <mxGeometry x="104.5" y="281" width="306.5" height="45" as="geometry" />
        </mxCell>
        <mxCell id="XQhjO7J8rdvKNfG-MFRs-18" value="Tencent Adapter" style="rounded=0;whiteSpace=wrap;html=1;comic=1;fillColor=#dae8fc;strokeColor=#6c8ebf;fontSize=11;fontFamily=Comic Sans MS;" parent="1" vertex="1">
          <mxGeometry x="104.5" y="346" width="95.5" height="30" as="geometry" />
        </mxCell>
        <mxCell id="XQhjO7J8rdvKNfG-MFRs-19" value="Amap Adapter" style="rounded=0;whiteSpace=wrap;html=1;comic=1;fillColor=#dae8fc;strokeColor=#6c8ebf;fontSize=11;fontFamily=Comic Sans MS;" parent="1" vertex="1">
          <mxGeometry x="208.25" y="346" width="99" height="30" as="geometry" />
        </mxCell>
        <mxCell id="XQhjO7J8rdvKNfG-MFRs-20" value="Baidu Adapter" style="rounded=0;whiteSpace=wrap;html=1;comic=1;fillColor=#dae8fc;strokeColor=#6c8ebf;fontSize=11;fontFamily=Comic Sans MS;" parent="1" vertex="1">
          <mxGeometry x="320" y="346" width="87.5" height="30" as="geometry" />
        </mxCell>
        <mxCell id="XQhjO7J8rdvKNfG-MFRs-21" value="Tencent&lt;br&gt;Navi" style="rounded=0;whiteSpace=wrap;html=1;comic=1;fillColor=#f5f5f5;strokeColor=#666666;fontSize=11;fontFamily=Comic Sans MS;fontColor=#333333;" parent="1" vertex="1">
          <mxGeometry x="104.5" y="401" width="95.5" height="30" as="geometry" />
        </mxCell>
        <mxCell id="XQhjO7J8rdvKNfG-MFRs-22" value="Amap&lt;br&gt;Navi" style="rounded=0;whiteSpace=wrap;html=1;comic=1;fillColor=#f5f5f5;strokeColor=#666666;fontSize=11;fontFamily=Comic Sans MS;fontColor=#333333;" parent="1" vertex="1">
          <mxGeometry x="209.25" y="401" width="101.75" height="30" as="geometry" />
        </mxCell>
        <mxCell id="XQhjO7J8rdvKNfG-MFRs-23" value="Baidu&lt;br&gt;Navi" style="rounded=0;whiteSpace=wrap;html=1;comic=1;fillColor=#f5f5f5;strokeColor=#666666;fontSize=11;fontFamily=Comic Sans MS;fontColor=#333333;" parent="1" vertex="1">
          <mxGeometry x="320" y="401" width="87.5" height="30" as="geometry" />
        </mxCell>
        <mxCell id="XQhjO7J8rdvKNfG-MFRs-25" value="" style="rounded=0;whiteSpace=wrap;html=1;comic=1;fontFamily=Comic Sans MS;fontSize=16;fillColor=#fff2cc;strokeColor=#d6b656;" parent="1" vertex="1">
          <mxGeometry x="461.25" y="241" width="351" height="210" as="geometry" />
        </mxCell>
        <mxCell id="XQhjO7J8rdvKNfG-MFRs-27" value="Map Interface" style="rounded=0;whiteSpace=wrap;html=1;comic=1;fillColor=#d5e8d4;strokeColor=#82b366;fontSize=11;fontFamily=Comic Sans MS;" parent="1" vertex="1">
          <mxGeometry x="483.5" y="281" width="306.5" height="45" as="geometry" />
        </mxCell>
        <mxCell id="XQhjO7J8rdvKNfG-MFRs-32" value="地图" style="text;html=1;strokeColor=none;fillColor=none;align=center;verticalAlign=middle;whiteSpace=wrap;rounded=0;comic=1;fontFamily=Comic Sans MS;fontSize=16;fontStyle=1" parent="1" vertex="1">
          <mxGeometry x="611.75" y="251" width="50" height="20" as="geometry" />
        </mxCell>
        <mxCell id="XQhjO7J8rdvKNfG-MFRs-35" value="Navi Interface" style="rounded=0;whiteSpace=wrap;html=1;comic=1;fillColor=#d5e8d4;strokeColor=#82b366;fontSize=11;fontFamily=Comic Sans MS;" parent="1" vertex="1">
          <mxGeometry x="104.5" y="281" width="306.5" height="45" as="geometry" />
        </mxCell>
        <mxCell id="XQhjO7J8rdvKNfG-MFRs-36" value="Tencent Adapter" style="rounded=0;whiteSpace=wrap;html=1;comic=1;fillColor=#dae8fc;strokeColor=#6c8ebf;fontSize=11;fontFamily=Comic Sans MS;" parent="1" vertex="1">
          <mxGeometry x="104.5" y="346" width="95.5" height="30" as="geometry" />
        </mxCell>
        <mxCell id="XQhjO7J8rdvKNfG-MFRs-37" value="Amap Adapter" style="rounded=0;whiteSpace=wrap;html=1;comic=1;fillColor=#dae8fc;strokeColor=#6c8ebf;fontSize=11;fontFamily=Comic Sans MS;" parent="1" vertex="1">
          <mxGeometry x="208.25" y="346" width="99" height="30" as="geometry" />
        </mxCell>
        <mxCell id="XQhjO7J8rdvKNfG-MFRs-38" value="Baidu Adapter" style="rounded=0;whiteSpace=wrap;html=1;comic=1;fillColor=#dae8fc;strokeColor=#6c8ebf;fontSize=11;fontFamily=Comic Sans MS;" parent="1" vertex="1">
          <mxGeometry x="320" y="346" width="87.5" height="30" as="geometry" />
        </mxCell>
        <mxCell id="XQhjO7J8rdvKNfG-MFRs-39" value="Tencent&lt;br&gt;Navi" style="rounded=0;whiteSpace=wrap;html=1;comic=1;fillColor=#f5f5f5;strokeColor=#666666;fontSize=11;fontFamily=Comic Sans MS;fontColor=#333333;" parent="1" vertex="1">
          <mxGeometry x="104.5" y="401" width="95.5" height="30" as="geometry" />
        </mxCell>
        <mxCell id="XQhjO7J8rdvKNfG-MFRs-40" value="Amap&lt;br&gt;Navi" style="rounded=0;whiteSpace=wrap;html=1;comic=1;fillColor=#f5f5f5;strokeColor=#666666;fontSize=11;fontFamily=Comic Sans MS;fontColor=#333333;" parent="1" vertex="1">
          <mxGeometry x="209.25" y="401" width="101.75" height="30" as="geometry" />
        </mxCell>
        <mxCell id="XQhjO7J8rdvKNfG-MFRs-41" value="Baidu&lt;br&gt;Navi" style="rounded=0;whiteSpace=wrap;html=1;comic=1;fillColor=#f5f5f5;strokeColor=#666666;fontSize=11;fontFamily=Comic Sans MS;fontColor=#333333;" parent="1" vertex="1">
          <mxGeometry x="320" y="401" width="87.5" height="30" as="geometry" />
        </mxCell>
        <mxCell id="XQhjO7J8rdvKNfG-MFRs-43" value="" style="rounded=0;whiteSpace=wrap;html=1;comic=1;fontFamily=Comic Sans MS;fontSize=16;fillColor=#eeeeee;strokeColor=#36393d;" parent="1" vertex="1">
          <mxGeometry x="84.63" y="490" width="731" height="300" as="geometry" />
        </mxCell>
        <mxCell id="XQhjO7J8rdvKNfG-MFRs-44" value="Meituan Map" style="rounded=0;whiteSpace=wrap;html=1;comic=1;fillColor=#f5f5f5;strokeColor=#666666;fontColor=#333333;fontSize=16;fontFamily=Comic Sans MS;" parent="1" vertex="1">
          <mxGeometry x="204" y="682" width="120" height="60" as="geometry" />
        </mxCell>
        <mxCell id="XQhjO7J8rdvKNfG-MFRs-45" value="Tencent Map" style="rounded=0;whiteSpace=wrap;html=1;comic=1;fillColor=#f5f5f5;strokeColor=#666666;fontColor=#333333;fontSize=16;fontFamily=Comic Sans MS;" parent="1" vertex="1">
          <mxGeometry x="354" y="682" width="120" height="60" as="geometry" />
        </mxCell>
        <mxCell id="XQhjO7J8rdvKNfG-MFRs-46" value="Amap Map" style="rounded=0;whiteSpace=wrap;html=1;comic=1;fillColor=#f5f5f5;strokeColor=#666666;fontColor=#333333;fontSize=16;fontFamily=Comic Sans MS;" parent="1" vertex="1">
          <mxGeometry x="504" y="682" width="120" height="60" as="geometry" />
        </mxCell>
        <mxCell id="XQhjO7J8rdvKNfG-MFRs-47" value="Baidu Map" style="rounded=0;whiteSpace=wrap;html=1;comic=1;fillColor=#f5f5f5;strokeColor=#666666;fontColor=#333333;fontSize=16;fontFamily=Comic Sans MS;" parent="1" vertex="1">
          <mxGeometry x="654" y="682" width="120" height="60" as="geometry" />
        </mxCell>
        <mxCell id="XQhjO7J8rdvKNfG-MFRs-48" value="Meituan Adapter" style="rounded=0;whiteSpace=wrap;html=1;comic=1;fillColor=#dae8fc;strokeColor=#6c8ebf;fontSize=16;fontFamily=Comic Sans MS;" parent="1" vertex="1">
          <mxGeometry x="204" y="602" width="120" height="60" as="geometry" />
        </mxCell>
        <mxCell id="XQhjO7J8rdvKNfG-MFRs-49" value="图商" style="text;html=1;strokeColor=none;fillColor=none;align=center;verticalAlign=middle;whiteSpace=wrap;rounded=0;comic=1;fontFamily=Comic Sans MS;fontSize=16;fontStyle=1" parent="1" vertex="1">
          <mxGeometry x="114" y="702" width="40" height="18" as="geometry" />
        </mxCell>
        <mxCell id="XQhjO7J8rdvKNfG-MFRs-50" value="Tencent&lt;br&gt;Adapter" style="rounded=0;whiteSpace=wrap;html=1;comic=1;fillColor=#dae8fc;strokeColor=#6c8ebf;fontSize=16;fontFamily=Comic Sans MS;" parent="1" vertex="1">
          <mxGeometry x="354" y="602" width="120" height="60" as="geometry" />
        </mxCell>
        <mxCell id="XQhjO7J8rdvKNfG-MFRs-51" value="AMap&lt;br&gt;Adapter" style="rounded=0;whiteSpace=wrap;html=1;comic=1;fillColor=#dae8fc;strokeColor=#6c8ebf;fontSize=16;fontFamily=Comic Sans MS;" parent="1" vertex="1">
          <mxGeometry x="504" y="602" width="120" height="60" as="geometry" />
        </mxCell>
        <mxCell id="XQhjO7J8rdvKNfG-MFRs-52" value="Baidu&lt;br&gt;Adapter" style="rounded=0;whiteSpace=wrap;html=1;comic=1;fillColor=#dae8fc;strokeColor=#6c8ebf;fontSize=16;fontFamily=Comic Sans MS;" parent="1" vertex="1">
          <mxGeometry x="654" y="602" width="120" height="60" as="geometry" />
        </mxCell>
        <mxCell id="XQhjO7J8rdvKNfG-MFRs-53" value="适配层" style="text;html=1;strokeColor=none;fillColor=none;align=center;verticalAlign=middle;whiteSpace=wrap;rounded=0;comic=1;fontFamily=Comic Sans MS;fontSize=16;fontStyle=1" parent="1" vertex="1">
          <mxGeometry x="114" y="622" width="50" height="20" as="geometry" />
        </mxCell>
        <mxCell id="XQhjO7J8rdvKNfG-MFRs-55" value="接口层" style="text;html=1;strokeColor=none;fillColor=none;align=center;verticalAlign=middle;whiteSpace=wrap;rounded=0;comic=1;fontFamily=Comic Sans MS;fontSize=16;fontStyle=1" parent="1" vertex="1">
          <mxGeometry x="114" y="542" width="50" height="20" as="geometry" />
        </mxCell>
        <mxCell id="XQhjO7J8rdvKNfG-MFRs-56" value="统一&lt;br&gt;地图" style="text;html=1;strokeColor=none;fillColor=none;align=center;verticalAlign=middle;whiteSpace=wrap;rounded=0;comic=1;fontFamily=Comic Sans MS;fontSize=16;fontStyle=1" parent="1" vertex="1">
          <mxGeometry x="11" y="622" width="58" height="20" as="geometry" />
        </mxCell>
        <mxCell id="AUB2p11LhJhiM78vF_-q-1" value="统一Map" style="rounded=0;whiteSpace=wrap;html=1;comic=1;fillColor=#f5f5f5;strokeColor=#666666;fontSize=11;fontFamily=Comic Sans MS;fontColor=#333333;" vertex="1" parent="1">
          <mxGeometry x="484" y="398" width="305" height="40" as="geometry" />
        </mxCell>
        <mxCell id="AUB2p11LhJhiM78vF_-q-2" value="统一 Adapter" style="rounded=0;whiteSpace=wrap;html=1;comic=1;fillColor=#dae8fc;strokeColor=#6c8ebf;fontSize=11;fontFamily=Comic Sans MS;" vertex="1" parent="1">
          <mxGeometry x="483.5" y="341" width="305.5" height="42" as="geometry" />
        </mxCell>
        <mxCell id="AUB2p11LhJhiM78vF_-q-3" value="统一 Interface" style="rounded=0;whiteSpace=wrap;html=1;comic=1;fillColor=#d5e8d4;strokeColor=#82b366;fontSize=16;fontFamily=Comic Sans MS;" vertex="1" parent="1">
          <mxGeometry x="204" y="522" width="570" height="60" as="geometry" />
        </mxCell>
        <mxCell id="AUB2p11LhJhiM78vF_-q-5" value="Flutter" style="text;html=1;strokeColor=none;fillColor=none;align=center;verticalAlign=middle;whiteSpace=wrap;rounded=0;comic=1;fontFamily=Comic Sans MS;fontSize=16;fontStyle=1" vertex="1" parent="1">
          <mxGeometry x="15" y="120" width="50" height="20" as="geometry" />
        </mxCell>
      </root>
    </mxGraphModel>
  </diagram>
</mxfile>
